<?xml version="1.0" encoding="UTF-8"?>
<svg width="375px" height="350px" viewBox="0 0 375 350" fill="none" version="1.1" xmlns="http://www.w3.org/2000/svg" xmlns:xlink="http://www.w3.org/1999/xlink">
    <g stroke="none" stroke-width="1" fill="none" fill-rule="evenodd">
        <g transform="translate(25.000000, 25.000000)">
            <polygon stroke="#EE3A2C" stroke-width="1.14942529" stroke-linejoin="round" points="56.2885057 149.265 56.2885057 86.4971839 67.2741379 80.1546552 78.2597701 86.4971839 67.2724138 92.8385632 67.2741379 142.922471 78.3258621 149.28569 78.3258621 99.202931 89.3114943 92.8604023 100.297126 99.202931 100.297126 161.970747 89.3114943 168.313851"></polygon>
            <polyline stroke="#EE3A2C" stroke-width="1.14942529" stroke-linejoin="round" points="78.2600575 86.4970115 78.2600575 136.580345 67.2744253 142.922299"></polyline>
            <line x1="78.3260345" y1="136.600575" x2="78.2599425" y2="136.579885" stroke="#EE3A2C" stroke-width="1.14942529" stroke-linejoin="round"></line>
            <line x1="56.2885057" y1="86.4970115" x2="67.2724138" y2="92.8383908" stroke="#EE3A2C" stroke-width="1.14942529" stroke-linejoin="round"></line>
            <polyline stroke="#EE3A2C" stroke-width="1.14942529" stroke-linejoin="round" points="78.3260345 99.2029885 89.3053448 105.545517 100.297299 99.2029885"></polyline>
            <line x1="89.3117816" y1="168.313621" x2="89.3054598" y2="105.545805" stroke="#EE3A2C" stroke-width="1.14942529" stroke-linejoin="round"></line>
            <polygon stroke="#EE3A2C" stroke-width="1.14942529" stroke-linejoin="round" points="122.048506 111.846667 111.062874 118.189195 144.01977 137.217356 155.005402 130.874253"></polygon>
            <polyline stroke="#EE3A2C" stroke-width="1.14942529" stroke-linejoin="round" points="155.005517 130.874483 155.005517 143.55954 144.019885 149.902069 144.019885 137.217011"></polyline>
            <polyline stroke="#EE3A2C" stroke-width="1.14942529" stroke-linejoin="round" points="111.062759 118.18931 110.997241 156.216322 121.220805 162.114598 133.612184 169.264023 133.612184 181.615172 110.997241 168.930115 110.997241 181.615172 144.019655 200.642759 144.019655 175.272644 144.019655 162.662299 121.852414 150.015172 122.048391 137.216897 144.019655 149.901954 155.005287 156.244483"></polyline>
            <polyline stroke="#EE3A2C" stroke-width="1.14942529" stroke-linejoin="round" points="144.01977 200.642874 155.005402 194.300345 155.005402 156.244598 144.01977 162.662414"></polyline>
            <line x1="121.898391" y1="162.411034" x2="110.912759" y2="168.753563" stroke="#EE3A2C" stroke-width="1.14942529" stroke-linejoin="round"></line>
            <line x1="133.017701" y1="143.497414" x2="122.032069" y2="149.839943" stroke="#EE3A2C" stroke-width="1.14942529" stroke-linejoin="round"></line>
            <polyline stroke="#EE3A2C" stroke-width="1.14942529" stroke-linejoin="round" points="221.112644 100.147011 221.112644 164.188966 232.098276 170.531494 232.098276 106.48954"></polyline>
            <polygon stroke="#EE3A2C" stroke-width="1.14942529" stroke-linejoin="round" points="243.083621 113.448448 254.069253 107.10592 254.069253 119.790977 243.083621 126.133506"></polygon>
            <line x1="254.069368" y1="119.790805" x2="243.083736" y2="113.448276" stroke="#EE3A2C" stroke-width="1.14942529" stroke-linejoin="round"></line>
            <polyline stroke="#EE3A2C" stroke-width="1.14942529" stroke-linejoin="round" points="232.098391 170.531609 243.083448 164.18908 243.083448 138.818391 265.055287 151.504023 265.055287 138.818391 254.06908 132.475862 265.055287 126.133908 265.055287 87.9344828 232.286897 106.541954 221.301264 100.199425 253.694368 81.591954 265.055287 87.9344828"></polyline>
            <polyline stroke="#EE3A2C" stroke-width="1.14942529" stroke-linejoin="round" points="44.5829885 188.694023 11.626092 169.666437 11.4295402 182.464138 33.5973563 195.111264 33.5973563 207.721034 33.5973563 233.091724 0.574942529 214.064713 0.574942529 201.378506 23.1898851 214.064713 23.1898851 201.712414 10.7985057 194.563563 0.574942529 188.664713 0.64045977 150.638276 11.5726437 144.357816 44.5295402 163.385402 34.0594253 169.43023 0.64045977 150.638276"></polyline>
            <polyline stroke="#EE3A2C" stroke-width="1.14942529" stroke-linejoin="round" points="33.5971839 233.091667 44.5828161 226.749138 44.5828161 188.693966 33.5971839 195.111207"></polyline>
            <path d="M0.490344828,201.203218 L11.475977,194.860115 L0.490344828,201.203218 Z" fill-rule="nonzero"></path>
            <line x1="11.4758046" y1="194.860402" x2="0.490172414" y2="201.202931" stroke="#EE3A2C" stroke-width="1.14942529" stroke-linejoin="round"></line>
            <g transform="translate(11.494253, 175.514368)">
                <line x1="11.1009195" y1="0.432126437" x2="0.115287356" y2="6.77465517" fill-rule="nonzero"></line>
                <line x1="11.1009195" y1="0.432126437" x2="0.115287356" y2="6.77465517" stroke="#EE3A2C" stroke-width="1.14942529" stroke-linejoin="round"></line>
            </g>
            <g transform="translate(33.333333, 162.870690)">
                <polyline fill-rule="nonzero" points="0.263850575 19.4807471 11.1960345 13.1997126 11.1960345 0.514655172"></polyline>
                <polyline stroke="#EE3A2C" stroke-width="1.14942529" stroke-linejoin="round" points="0.263850575 19.4807471 11.1960345 13.1997126 11.1960345 0.514655172"></polyline>
            </g>
            <path d="M33.5441379,181.997011 L33.5441379,169.27 L33.5441379,181.997011 Z" fill-rule="nonzero"></path>
            <line x1="33.543908" y1="169.270517" x2="33.543908" y2="181.997529" stroke="#EE3A2C" stroke-width="1.14942529" stroke-linejoin="round"></line>
            <polygon stroke="#EE3A2C" stroke-width="1.14942529" stroke-linejoin="round" points="67.0756322 175.946494 56.09 182.289023 56.09 194.97408 67.0756322 201.317184 67.0756322 252.057414 78.0612644 258.399943 78.0612644 207.659713 89.0468966 214.002241 89.0468966 201.317184 100.032529 194.97408"></polygon>
            <polyline stroke="#EE3A2C" stroke-width="1.14942529" stroke-linejoin="round" points="100.032644 194.97431 100.032644 207.658793 89.0470115 214.001897 89.0470115 252.057069 78.0613793 258.399598"></polyline>
            <line x1="56.0898276" y1="182.289138" x2="89.0467241" y2="201.316724" stroke="#EE3A2C" stroke-width="1.14942529" stroke-linejoin="round"></line>
            <polygon stroke="#EE3A2C" stroke-width="1.14942529" stroke-linejoin="round" points="226.031379 198.171149 237.017011 204.513678 237.017011 267.938966 226.031379 261.596437"></polygon>
            <polyline stroke="#EE3A2C" stroke-width="1.14942529" stroke-linejoin="round" points="226.031379 198.171149 258.988276 179.143563 269.973908 185.486092"></polyline>
            <polygon stroke="#EE3A2C" stroke-width="1.14942529" stroke-linejoin="round" points="248.002356 210.856379 258.987989 205.088563 258.987989 217.198908 248.002931 223.540862"></polygon>
            <polyline stroke="#EE3A2C" stroke-width="1.14942529" stroke-linejoin="round" points="237.017126 267.939253 248.002184 261.596724 248.002184 236.226034 269.974023 224.116264 269.974023 185.485805 237.017126 204.513966"></polyline>
            <line x1="258.988103" y1="217.198966" x2="248.002471" y2="210.856437" stroke="#EE3A2C" stroke-width="1.14942529" stroke-linejoin="round"></line>
            <polygon stroke="#EE3A2C" stroke-width="1.14942529" stroke-linejoin="round" points="280.961322 166.641092 280.961322 204.696839 291.946379 211.038793 291.946379 172.983621"></polygon>
            <polygon stroke="#EE3A2C" stroke-width="1.14942529" stroke-linejoin="round" points="280.961322 217.381379 280.961322 230.066437 291.946379 236.408966 291.946379 223.723908"></polygon>
            <g stroke-linejoin="round" transform="translate(280.459770, 147.353448)" stroke="#EE3A2C" stroke-width="1.14942529">
                <polyline points="11.4867816 89.0557471 44.4413793 69.5833333 44.4413793 31.8086207 22.4695402 44.658046 22.4695402 31.9729885 44.4408046 19.287931 44.4408046 6.60229885 33.4557471 0.259770115 0.501724138 19.287931"></polyline>
                <line x1="11.4867816" y1="25.6302299" x2="44.4408046" y2="6.60264368"></line>
            </g>
            <polyline stroke="#EE3A2C" stroke-width="1.14942529" stroke-linejoin="round" points="280.961322 217.381379 291.946379 211.038851 313.91477 198.497471 313.915345 211.039425 291.946379 223.723908"></polyline>
            <line x1="302.992356" y1="204.733218" x2="312.872816" y2="210.437816" stroke="#EE3A2C" stroke-width="1.14942529" stroke-linejoin="round"></line>
            <line x1="313.606034" y1="172.765402" x2="324.591667" y2="179.107931" stroke="#EE3A2C" stroke-width="1.14942529" stroke-linejoin="round"></line>
            <line x1="143.397356" y1="233.146667" x2="110.44046" y2="214.11908" stroke="#EE3A2C" stroke-width="1.14942529" stroke-linejoin="round"></line>
            <polygon stroke="#EE3A2C" stroke-width="1.14942529" stroke-linejoin="round" points="143.397356 233.146667 154.382989 226.358736 121.426092 207.919655 110.44046 214.11908 110.44046 277.544943 121.426092 283.887471 121.426092 258.517356 132.50023 264.859885 132.411724 290.23 143.397356 296.571954"></polygon>
            <polyline stroke="#EE3A2C" stroke-width="1.14942529" stroke-linejoin="round" points="143.397356 296.572184 154.382989 290.23023 154.382989 226.358966"></polyline>
            <polygon stroke="#EE3A2C" stroke-width="1.14942529" stroke-linejoin="round" points="121.426092 233.146667 121.426092 245.831724 132.411724 252.174253 132.411724 239.489195"></polygon>
            <polygon stroke="#EE3A2C" stroke-width="1.14942529" stroke-linejoin="round" points="166.758793 195.897586 177.744425 202.691839 177.744425 138.814253 166.758793 132.471724"></polygon>
            <polyline stroke="#EE3A2C" stroke-width="1.14942529" stroke-linejoin="round" points="166.758793 132.471782 199.71569 113.444195 210.701322 119.786724 177.744425 138.81431"></polyline>
            <polyline stroke="#EE3A2C" stroke-width="1.14942529" stroke-linejoin="round" points="177.74431 202.691954 210.460977 183.664368 210.701782 170.527011 188.489138 183.212069 188.729943 170.527011 210.701782 157.841954 210.701782 145.608621 188.729943 157.841954 188.729943 144.662644 198.554655 139.211494 210.701782 132.471839 210.701782 119.786782"></polyline>
            <line x1="210.701609" y1="145.608793" x2="198.554483" y2="139.211667" stroke="#EE3A2C" stroke-width="1.14942529" stroke-linejoin="round"></line>
            <line x1="210.701609" y1="170.527126" x2="198.554483" y2="164.519655" stroke="#EE3A2C" stroke-width="1.14942529" stroke-linejoin="round"></line>
            <g transform="translate(118.965517, 0.227011)">
                <path d="M42.3267816,80.7285632 L67.0405747,66.6193678 L79.3951724,59.5693678 L62.5583908,49.8751149 L43.1727586,61.0360345 L25.5043678,71.2072989 L42.3267816,80.7285632 Z M81.0968966,37.4561494 L71.3193103,31.8262644 L64.2417241,27.7521264 L64.2417241,46.9538506 L74.0175862,52.5820115 L81.0968966,56.6584483 L81.0968966,37.4561494 Z M82.7831034,15.1371839 L65.9342529,24.8371839 L82.7831034,34.5371839 L99.6302299,24.8348851 L82.7831034,15.1371839 Z M30.8693103,64.2268391 L40.6451724,58.5986782 L40.6451724,16.305 L33.5675862,20.3797126 L23.7894253,26.0095977 L23.7894253,68.3032759 L30.8693103,64.2268391 Z M22.1055172,3.69063218 L5.25436782,13.3906322 L22.1014943,23.0900575 L38.9509195,13.3883333 L22.1014943,3.69063218 L22.1055172,3.69063218 Z M3.56471264,16.305 L3.56471264,81.6900575 L40.6428736,103.037184 L40.6428736,83.6452299 L21.2727586,72.6825862 L21.2658621,72.6785632 L21.2578161,72.6739655 C21.1928736,72.6360345 21.1377011,72.5820115 21.0767816,72.5354598 C21.0244828,72.492931 20.9629885,72.4595977 20.9170115,72.4136207 L20.9124138,72.4072989 C20.8578161,72.3544253 20.8198851,72.288908 20.773908,72.2302874 C20.7313793,72.1733908 20.6808046,72.1251149 20.6474713,72.0659195 L20.6451724,72.0601724 C20.6072414,71.996954 20.5842529,71.921092 20.5572414,71.8492529 C20.5296552,71.7860345 20.494023,71.7274138 20.4767816,71.6601724 L20.4767816,71.6578736 C20.456092,71.5779885 20.4514943,71.4935057 20.4434483,71.4118966 C20.4348276,71.3486782 20.4181609,71.2854598 20.4181609,71.2222414 L20.4181609,71.2182184 L20.4181609,26.0095977 L10.6422989,20.3774138 L3.56471264,16.3072989 L3.56471264,16.305 Z M81.0968966,81.6900575 L81.0968966,62.4756897 L71.4790805,67.9682184 L44.0147126,83.6435057 L44.0147126,103.038908 L81.0968966,81.6900575 Z M101.322184,46.9538506 L101.322184,27.7521264 L94.2445977,31.8262644 L84.4670115,37.4561494 L84.4670115,56.6584483 L101.324483,46.9538506 L101.322184,46.9538506 Z M104.635402,24.396954 C104.673908,24.5406322 104.694023,24.6883333 104.694023,24.8371839 L104.694023,47.9285632 C104.694023,48.5320115 104.371609,49.088908 103.847471,49.3894828 L84.4670115,60.5475287 L84.4670115,82.6647701 C84.4670115,83.267069 84.1468966,83.8222414 83.6250575,84.1251149 L43.1687356,107.41477 C43.0762069,107.467069 42.9750575,107.500977 42.873908,107.536609 C42.835977,107.549253 42.8003448,107.572241 42.7601149,107.583161 C42.4773563,107.657299 42.1802299,107.657299 41.8974713,107.583161 C41.8509195,107.570517 41.8089655,107.54523 41.7647126,107.527989 C41.6721839,107.494655 41.5750575,107.46477 41.4871264,107.41477 L1.03885057,84.1251149 C0.516436782,83.8251149 0.192873563,83.2676437 0.192873563,82.6647701 L0.192873563,13.3906322 C0.192873563,13.238908 0.214137931,13.0917816 0.252068966,12.9481034 C0.264712644,12.8998276 0.294022989,12.8555747 0.310689655,12.8072989 C0.342298851,12.7187931 0.372183908,12.6285632 0.41816092,12.5463793 C0.449770115,12.4917816 0.495747126,12.4475287 0.533678161,12.396954 C0.582528736,12.3297126 0.626206897,12.2601724 0.683678161,12.2015517 C0.731954023,12.1527011 0.794597701,12.117069 0.849770115,12.0751149 C0.910689655,12.0245402 0.965287356,11.9699425 1.03482759,11.9297126 L1.03712644,11.9297126 L21.2618391,0.284885057 C21.7831034,-0.0151149425 22.4244828,-0.0151149425 22.9457471,0.284885057 L43.1704598,11.9297126 L43.1750575,11.9297126 C43.2422989,11.9716667 43.2991954,12.0245402 43.3601149,12.0728161 C43.4147126,12.1147701 43.4762069,12.1527011 43.523908,12.1992529 C43.5831034,12.2601724 43.6250575,12.3297126 43.6756322,12.396954 C43.7118391,12.4475287 43.7601149,12.4917816 43.7894253,12.5463793 C43.8377011,12.6302874 43.8652874,12.7187931 43.8986207,12.8072989 C43.9158621,12.8555747 43.9451724,12.8998276 43.9578161,12.9504023 C43.9963218,13.0940805 44.0164368,13.2417816 44.0164368,13.3906322 L44.0164368,56.6584483 L60.8698851,46.9538506 L60.8698851,24.8348851 C60.8698851,24.6877586 60.8911494,24.5383333 60.9290805,24.396954 C60.944023,24.346954 60.9710345,24.3027011 60.9877011,24.2538506 C61.0216092,24.1659195 61.0514943,24.0751149 61.0974713,23.992931 C61.1290805,23.9383333 61.1750575,23.8940805 61.2112644,23.8440805 C61.2618391,23.7762644 61.3037931,23.7072989 61.3629885,23.6481034 C61.4112644,23.5998276 61.4721839,23.5641954 61.5267816,23.5216667 C61.59,23.4716667 61.6445977,23.4164943 61.7118391,23.3768391 L61.7141379,23.3768391 L81.9411494,11.7320115 C82.4618391,11.4314368 83.1037931,11.4314368 83.6250575,11.7320115 L103.84977,23.3768391 C103.921609,23.4187931 103.976207,23.4716667 104.038851,23.5199425 C104.091724,23.5618966 104.153218,23.5998276 104.201494,23.6458046 C104.260115,23.7067241 104.302069,23.7762644 104.352644,23.8440805 C104.391149,23.8940805 104.437126,23.9383333 104.467011,23.992931 C104.515287,24.0751149 104.542299,24.1659195 104.576207,24.2538506 C104.594598,24.3027011 104.622184,24.346954 104.635402,24.396954 L104.635402,24.396954 Z" fill="#EE382C" fill-rule="nonzero"></path>
                <path d="M42.3267816,80.7285632 L67.0405747,66.6193678 L79.3951724,59.5693678 L62.5583908,49.8751149 L43.1727586,61.0360345 L25.5043678,71.2072989 L42.3267816,80.7285632 Z M81.0968966,37.4561494 L71.3193103,31.8262644 L64.2417241,27.7521264 L64.2417241,46.9538506 L74.0175862,52.5820115 L81.0968966,56.6584483 L81.0968966,37.4561494 Z M82.7831034,15.1371839 L65.9342529,24.8371839 L82.7831034,34.5371839 L99.6302299,24.8348851 L82.7831034,15.1371839 Z M30.8693103,64.2268391 L40.6451724,58.5986782 L40.6451724,16.305 L33.5675862,20.3797126 L23.7894253,26.0095977 L23.7894253,68.3032759 L30.8693103,64.2268391 Z M22.1055172,3.69063218 L5.25436782,13.3906322 L22.1014943,23.0900575 L38.9509195,13.3883333 L22.1014943,3.69063218 L22.1055172,3.69063218 Z M3.56471264,16.305 L3.56471264,81.6900575 L40.6428736,103.037184 L40.6428736,83.6452299 L21.2727586,72.6825862 L21.2658621,72.6785632 L21.2578161,72.6739655 C21.1928736,72.6360345 21.1377011,72.5820115 21.0767816,72.5354598 C21.0244828,72.492931 20.9629885,72.4595977 20.9170115,72.4136207 L20.9124138,72.4072989 C20.8578161,72.3544253 20.8198851,72.288908 20.773908,72.2302874 C20.7313793,72.1733908 20.6808046,72.1251149 20.6474713,72.0659195 L20.6451724,72.0601724 C20.6072414,71.996954 20.5842529,71.921092 20.5572414,71.8492529 C20.5296552,71.7860345 20.494023,71.7274138 20.4767816,71.6601724 L20.4767816,71.6578736 C20.456092,71.5779885 20.4514943,71.4935057 20.4434483,71.4118966 C20.4348276,71.3486782 20.4181609,71.2854598 20.4181609,71.2222414 L20.4181609,71.2182184 L20.4181609,26.0095977 L10.6422989,20.3774138 L3.56471264,16.3072989 L3.56471264,16.305 Z M81.0968966,81.6900575 L81.0968966,62.4756897 L71.4790805,67.9682184 L44.0147126,83.6435057 L44.0147126,103.038908 L81.0968966,81.6900575 Z M101.322184,46.9538506 L101.322184,27.7521264 L94.2445977,31.8262644 L84.4670115,37.4561494 L84.4670115,56.6584483 L101.324483,46.9538506 L101.322184,46.9538506 Z M104.635402,24.396954 C104.673908,24.5406322 104.694023,24.6883333 104.694023,24.8371839 L104.694023,47.9285632 C104.694023,48.5320115 104.371609,49.088908 103.847471,49.3894828 L84.4670115,60.5475287 L84.4670115,82.6647701 C84.4670115,83.267069 84.1468966,83.8222414 83.6250575,84.1251149 L43.1687356,107.41477 C43.0762069,107.467069 42.9750575,107.500977 42.873908,107.536609 C42.835977,107.549253 42.8003448,107.572241 42.7601149,107.583161 C42.4773563,107.657299 42.1802299,107.657299 41.8974713,107.583161 C41.8509195,107.570517 41.8089655,107.54523 41.7647126,107.527989 C41.6721839,107.494655 41.5750575,107.46477 41.4871264,107.41477 L1.03885057,84.1251149 C0.516436782,83.8251149 0.192873563,83.2676437 0.192873563,82.6647701 L0.192873563,13.3906322 C0.192873563,13.238908 0.214137931,13.0917816 0.252068966,12.9481034 C0.264712644,12.8998276 0.294022989,12.8555747 0.310689655,12.8072989 C0.342298851,12.7187931 0.372183908,12.6285632 0.41816092,12.5463793 C0.449770115,12.4917816 0.495747126,12.4475287 0.533678161,12.396954 C0.582528736,12.3297126 0.626206897,12.2601724 0.683678161,12.2015517 C0.731954023,12.1527011 0.794597701,12.117069 0.849770115,12.0751149 C0.910689655,12.0245402 0.965287356,11.9699425 1.03482759,11.9297126 L1.03712644,11.9297126 L21.2618391,0.284885057 C21.7831034,-0.0151149425 22.4244828,-0.0151149425 22.9457471,0.284885057 L43.1704598,11.9297126 L43.1750575,11.9297126 C43.2422989,11.9716667 43.2991954,12.0245402 43.3601149,12.0728161 C43.4147126,12.1147701 43.4762069,12.1527011 43.523908,12.1992529 C43.5831034,12.2601724 43.6250575,12.3297126 43.6756322,12.396954 C43.7118391,12.4475287 43.7601149,12.4917816 43.7894253,12.5463793 C43.8377011,12.6302874 43.8652874,12.7187931 43.8986207,12.8072989 C43.9158621,12.8555747 43.9451724,12.8998276 43.9578161,12.9504023 C43.9963218,13.0940805 44.0164368,13.2417816 44.0164368,13.3906322 L44.0164368,56.6584483 L60.8698851,46.9538506 L60.8698851,24.8348851 C60.8698851,24.6877586 60.8911494,24.5383333 60.9290805,24.396954 C60.944023,24.346954 60.9710345,24.3027011 60.9877011,24.2538506 C61.0216092,24.1659195 61.0514943,24.0751149 61.0974713,23.992931 C61.1290805,23.9383333 61.1750575,23.8940805 61.2112644,23.8440805 C61.2618391,23.7762644 61.3037931,23.7072989 61.3629885,23.6481034 C61.4112644,23.5998276 61.4721839,23.5641954 61.5267816,23.5216667 C61.59,23.4716667 61.6445977,23.4164943 61.7118391,23.3768391 L61.7141379,23.3768391 L81.9411494,11.7320115 C82.4618391,11.4314368 83.1037931,11.4314368 83.6250575,11.7320115 L103.84977,23.3768391 C103.921609,23.4187931 103.976207,23.4716667 104.038851,23.5199425 C104.091724,23.5618966 104.153218,23.5998276 104.201494,23.6458046 C104.260115,23.7067241 104.302069,23.7762644 104.352644,23.8440805 C104.391149,23.8940805 104.437126,23.9383333 104.467011,23.992931 C104.515287,24.0751149 104.542299,24.1659195 104.576207,24.2538506 C104.594598,24.3027011 104.622184,24.346954 104.635402,24.396954 Z" stroke="#EE3A2C" stroke-width="0.574712644"></path>
                <polygon stroke="#EE3A2C" stroke-width="1.14942529" stroke-linejoin="round" points="63.1227586 299.425287 63.1227586 235.999425 52.1371264 229.656897 52.1371264 293.082759"></polygon>
                <polyline stroke="#EE3A2C" stroke-width="1.14942529" stroke-linejoin="round" points="63.1227586 235.999195 74.1083908 229.656667 63.1227586 223.314713 52.1371264 229.656667"></polyline>
                <polygon stroke="#EE3A2C" stroke-width="1.14942529" stroke-linejoin="round" points="74.6232184 217.669023 85.6088506 211.326494 96.5944828 217.669023 85.6088506 224.011552"></polygon>
                <polyline stroke="#EE3A2C" stroke-width="1.14942529" stroke-linejoin="round" points="85.6089655 224.011609 79.9986207 245.904713 74.1083908 229.656437"></polyline>
                <line x1="74.6232184" y1="217.669023" x2="71.9312644" y2="228.400057" stroke="#EE3A2C" stroke-width="1.14942529" stroke-linejoin="round"></line>
                <polyline stroke="#EE3A2C" stroke-width="1.14942529" stroke-linejoin="round" points="63.1227586 299.425287 74.1083908 293.244828 74.273908 281.011494 74.6233333 255.18908 79.8589655 264.554598 85.094023 248.846552 85.094023 286.902299 96.0802299 280.397701 96.5945977 217.668966"></polyline>
                <line x1="85.0943103" y1="286.902241" x2="74.2741954" y2="281.011437" stroke="#EE3A2C" stroke-width="1.14942529" stroke-linejoin="round"></line>
            </g>
        </g>
    </g>
</svg>
